<svg xmlns="http://www.w3.org/2000/svg" id="Layer_1" width="100" height="100" data-name="Layer 1" viewBox="0 0 75 75"><title>Amazon-EC2_T2-Instance_light-bg</title><g transform="translate(4, 5) scale(1.25)"><text fill="#d86613" font-family="Amazon Ember, Helvetica, Arial, sans-serif" font-size="14" font-weight="bold" transform="translate(2, 16)"><tspan x="1em" dy="1em">P3</tspan></text><path d="M44.31,44.31H5.69V5.69H44.31Zm-36.62-2H42.31V7.69H7.69Z" style="fill:#d86613"/><rect width="2" height="5.69" x="11.21" y="1" style="fill:#d86613"/><rect width="2" height="5.69" x="17.48" y="1" style="fill:#d86613"/><rect width="2" height="5.69" x="23.76" y="1" style="fill:#d86613"/><rect width="2" height="5.69" x="30.04" y="1" style="fill:#d86613"/><rect width="2" height="5.69" x="36.32" y="1" style="fill:#d86613"/><rect width="2" height="5.69" x="11.21" y="43.31" style="fill:#d86613"/><rect width="2" height="5.69" x="17.48" y="43.31" style="fill:#d86613"/><rect width="2" height="5.69" x="23.76" y="43.31" style="fill:#d86613"/><rect width="2" height="5.69" x="30.04" y="43.31" style="fill:#d86613"/><rect width="2" height="5.69" x="36.32" y="43.31" style="fill:#d86613"/><rect width="5.69" height="2" x="43.31" y="11.45" style="fill:#d86613"/><rect width="5.69" height="2" x="43.31" y="17.72" style="fill:#d86613"/><rect width="5.69" height="2" x="43.31" y="24" style="fill:#d86613"/><rect width="5.69" height="2" x="43.31" y="30.28" style="fill:#d86613"/><rect width="5.69" height="2" x="43.31" y="36.55" style="fill:#d86613"/><rect width="5.69" height="2" x="1" y="11.45" style="fill:#d86613"/><rect width="5.69" height="2" x="1" y="17.72" style="fill:#d86613"/><rect width="5.69" height="2" x="1" y="24" style="fill:#d86613"/><rect width="5.69" height="2" x="1" y="30.28" style="fill:#d86613"/><rect width="5.69" height="2" x="1" y="36.55" style="fill:#d86613"/></g><style type="text/css">.st4{fill:#1d8102}</style><g id="icon"><g transform="translate(59,0)"><path d="M8,0C3.6,0,0,3.6,0,8s3.6,8,8,8s8-3.6,8-8S12.4,0,8,0z M8,14c-3.3,0-6-2.7-6-6s2.7-6,6-6s6,2.7,6,6 S11.3,14,8,14z" class="st4"/><polygon points="7 8.6 5 6.6 3.6 8 7 11.4 11.9 6.5 10.5 5.1" class="st4"/></g></g></svg>