<svg xmlns="http://www.w3.org/2000/svg" viewBox="0 0 50 50"><defs><style>.cls-1{fill:#d86613}</style></defs><title>Amazon-EC2_Instance_light-bg</title><g id="Working"><path d="M44.31,44.31H5.69V5.69H44.31Zm-36.62-2H42.31V7.69H7.69Z" class="cls-1"/><rect width="2" height="5.69" x="11.21" y="1" class="cls-1"/><rect width="2" height="5.69" x="17.48" y="1" class="cls-1"/><rect width="2" height="5.69" x="23.76" y="1" class="cls-1"/><rect width="2" height="5.69" x="30.04" y="1" class="cls-1"/><rect width="2" height="5.69" x="36.32" y="1" class="cls-1"/><rect width="2" height="5.69" x="11.21" y="43.31" class="cls-1"/><rect width="2" height="5.69" x="17.48" y="43.31" class="cls-1"/><rect width="2" height="5.69" x="23.76" y="43.31" class="cls-1"/><rect width="2" height="5.69" x="30.04" y="43.31" class="cls-1"/><rect width="2" height="5.69" x="36.32" y="43.31" class="cls-1"/><rect width="5.69" height="2" x="43.31" y="11.45" class="cls-1"/><rect width="5.69" height="2" x="43.31" y="17.72" class="cls-1"/><rect width="5.69" height="2" x="43.31" y="24" class="cls-1"/><rect width="5.69" height="2" x="43.31" y="30.28" class="cls-1"/><rect width="5.69" height="2" x="43.31" y="36.55" class="cls-1"/><rect width="5.69" height="2" x="1" y="11.45" class="cls-1"/><rect width="5.69" height="2" x="1" y="17.72" class="cls-1"/><rect width="5.69" height="2" x="1" y="24" class="cls-1"/><rect width="5.69" height="2" x="1" y="30.28" class="cls-1"/><rect width="5.69" height="2" x="1" y="36.55" class="cls-1"/></g></svg>