<svg xmlns="http://www.w3.org/2000/svg" id="Layer_1" width="100" height="100" data-name="Layer 1" viewBox="0 0 75 75"><title>Amazon-EC2_Spot-Instance_light-bg</title><g transform="translate(4, 5) scale(1.25)"><path d="M29.75,31.43h-9.5a1.65,1.65,0,0,1-1.65-1.65v-9.5a1.65,1.65,0,0,1,1.65-1.65h9.5a1.65,1.65,0,0,1,1.65,1.65v9.5A1.65,1.65,0,0,1,29.75,31.43Zm-9.15-2h8.8v-8.8H20.6Z" style="fill:#d86613"/><rect width="2" height="16.55" x="10.95" y="3.71" transform="translate(-4.97 11.96) rotate(-45)" style="fill:#d86613"/><rect width="2" height="16.55" x="37.05" y="29.81" transform="translate(-15.78 38.06) rotate(-45)" style="fill:#d86613"/><rect width="8.91" height="2" x="4.8" y="39.78" transform="translate(-26.13 18.48) rotate(-45)" style="fill:#d86613"/><rect width="8.91" height="2" x="36.3" y="8.28" transform="translate(5.37 31.53) rotate(-45)" style="fill:#d86613"/><rect width="5.4" height="2" x="2.5" y="24.03" style="fill:#d86613"/><rect width="5.4" height="2" x="42.1" y="24.03" style="fill:#d86613"/><rect width="2" height="5.34" x="24" y="42.13" style="fill:#d86613"/><rect width="2" height="5.4" x="24" y="2.53" style="fill:#d86613"/><path d="M41.87,37.21,40.25,36a18.85,18.85,0,0,0,0-22l1.62-1.17a20.84,20.84,0,0,1,0,24.36Z" style="fill:#d86613"/><path d="M36,9.78a18.85,18.85,0,0,0-22,0L12.82,8.16a20.84,20.84,0,0,1,24.36,0Z" style="fill:#d86613"/><path d="M25,45.83A20.68,20.68,0,0,1,12.82,41.9L14,40.28a18.85,18.85,0,0,0,22,0l1.17,1.62A20.68,20.68,0,0,1,25,45.83Z" style="fill:#d86613"/><path d="M8.13,37.21a20.84,20.84,0,0,1,0-24.36L9.75,14a18.85,18.85,0,0,0,0,22Z" style="fill:#d86613"/></g><style type="text/css">.st4{fill:#d13212}</style><g id="icon"><g transform="translate(58,0)"><path d="M13.7,2.3C12.1,0.8,10.1,0,8,0S3.9,0.8,2.3,2.3C0.8,3.9,0,5.9,0,8s0.8,4.1,2.3,5.7C3.9,15.2,5.9,16,8,16 s4.1-0.8,5.7-2.3C15.2,12.1,16,10.1,16,8S15.2,3.9,13.7,2.3z M12.2,12.2C11.1,13.4,9.6,14,8,14s-3.1-0.6-4.2-1.8S2,9.6,2,8 s0.6-3.1,1.8-4.2S6.4,2,8,2s3.1,0.6,4.2,1.8S14,6.4,14,8S13.4,11.1,12.2,12.2z" class="st4"/><polygon points="10.1 4.5 8 6.6 5.9 4.5 4.5 5.9 6.6 8 4.5 10.1 5.9 11.5 8 9.4 10.1 11.5 11.5 10.1 9.4 8 11.5 5.9" class="st4"/></g></g></svg>