<svg xmlns="http://www.w3.org/2000/svg" id="Layer_1" width="100" height="100" data-name="Layer 1" viewBox="0 0 75 75"><title>Amazon-EC2_T2-Instance_light-bg</title><g transform="translate(4, 5) scale(1.25)"><text fill="#d86613" font-family="Amazon Ember, Helvetica, Arial, sans-serif" font-size="14" font-weight="bold" transform="translate(2, 16)"><tspan x="1em" dy="1em">P2</tspan></text><path d="M44.31,44.31H5.69V5.69H44.31Zm-36.62-2H42.31V7.69H7.69Z" style="fill:#d86613"/><rect width="2" height="5.69" x="11.21" y="1" style="fill:#d86613"/><rect width="2" height="5.69" x="17.48" y="1" style="fill:#d86613"/><rect width="2" height="5.69" x="23.76" y="1" style="fill:#d86613"/><rect width="2" height="5.69" x="30.04" y="1" style="fill:#d86613"/><rect width="2" height="5.69" x="36.32" y="1" style="fill:#d86613"/><rect width="2" height="5.69" x="11.21" y="43.31" style="fill:#d86613"/><rect width="2" height="5.69" x="17.48" y="43.31" style="fill:#d86613"/><rect width="2" height="5.69" x="23.76" y="43.31" style="fill:#d86613"/><rect width="2" height="5.69" x="30.04" y="43.31" style="fill:#d86613"/><rect width="2" height="5.69" x="36.32" y="43.31" style="fill:#d86613"/><rect width="5.69" height="2" x="43.31" y="11.45" style="fill:#d86613"/><rect width="5.69" height="2" x="43.31" y="17.72" style="fill:#d86613"/><rect width="5.69" height="2" x="43.31" y="24" style="fill:#d86613"/><rect width="5.69" height="2" x="43.31" y="30.28" style="fill:#d86613"/><rect width="5.69" height="2" x="43.31" y="36.55" style="fill:#d86613"/><rect width="5.69" height="2" x="1" y="11.45" style="fill:#d86613"/><rect width="5.69" height="2" x="1" y="17.72" style="fill:#d86613"/><rect width="5.69" height="2" x="1" y="24" style="fill:#d86613"/><rect width="5.69" height="2" x="1" y="30.28" style="fill:#d86613"/><rect width="5.69" height="2" x="1" y="36.55" style="fill:#d86613"/></g><style type="text/css">.st4{fill:#f90}</style><g id="icon"><g transform="translate(60,0)"><path d="M15.9,14.6l-7-14c-0.3-0.7-1.5-0.7-1.8,0l-7,14c-0.2,0.3-0.1,0.7,0,1C0.3,15.8,0.7,16,1,16h14 c0.3,0,0.7-0.2,0.9-0.5C16,15.2,16,14.9,15.9,14.6z M2.6,14L8,3.2L13.4,14H2.6z" class="st4"/><polygon points="7 11 7 13 9 13 9 11" class="st4"/><rect width="2" height="4" x="7" y="6" class="st4"/></g></g></svg>