<svg xmlns="http://www.w3.org/2000/svg" width="75" height="75" viewBox="0 0 75 75"><title>exp-API-Gateway-method-delete_light-bg</title><polygon fill="none" points="14.5 21.5 14.5 55.5 19.2 57 19.2 52.3 25.5 52.3 25.5 16.2 14.5 21.5"/><rect width="75" height="75" fill="transparent"/><polygon fill="none" points="56.5 56.8 60.5 55.5 60.5 21.5 49.5 16.1 49.5 52.3 56.5 52.3 56.5 56.8"/><path fill="#d6242d" d="M62,20,49,13.6a.92.92,0,0,0-1,.1,1,1,0,0,0-.5.8V52.3h2V16.1l11,5.4v34l-4,1.3V59l5.3-1.8a1,1,0,0,0,.7-1V20.8A.89.89,0,0,0,62,20Z"/><path fill="#d6242d" d="M14.5,55.5v-34l11-5.4V52.3h2V49.5h-1v-2h1v-20h-1v-2h1v-11a.89.89,0,0,0-.5-.8,1.18,1.18,0,0,0-1-.1L13,20a1.15,1.15,0,0,0-.6.9V56.2a1.09,1.09,0,0,0,.7,1l6,2V57Z"/><rect width="3" height="2" x="44.5" y="25.5" fill="#d6242d"/><rect width="2" height="2" x="27.5" y="25.5" fill="#d6242d"/><rect width="3" height="2" x="38.5" y="25.5" fill="#d6242d"/><rect width="3" height="2" x="32.5" y="25.5" fill="#d6242d"/><rect width="1" height="2" x="26.5" y="25.5" fill="#d6242d"/><rect width="2" height="2" x="27.5" y="47.5" fill="#d6242d"/><rect width="3" height="2" x="38.5" y="47.5" fill="#d6242d"/><rect width="3" height="2" x="44.5" y="47.5" fill="#d6242d"/><rect width="3" height="2" x="32.5" y="47.5" fill="#d6242d"/><rect width="1" height="2" x="26.5" y="47.5" fill="#d6242d"/><path fill="#d6242d" d="M33.1,33l-3.8,3.2-.1.1a1,1,0,0,0,.1,1.4l3.8,3.2,1.3-1.5L31.5,37l2.9-2.5Z"/><path fill="#d6242d" d="M45.7,37.7l.1-.1a1,1,0,0,0-.1-1.4L41.9,33l-1.3,1.6L43.5,37l-2.9,2.4,1.3,1.5Z"/><rect width="12.4" height="2" x="31.3" y="36.49" fill="#d6242d" transform="translate(-10.02 61.01) rotate(-71.32)"/><text fill="#d6242d" font-family="ArialMT, Arial" font-size="12" transform="translate(15 70)" style="isolation:isolate">DELETE</text></svg>