<svg xmlns="http://www.w3.org/2000/svg" xmlns:xlink="http://www.w3.org/1999/xlink" width="100" height="100" enable-background="new 0 0 100 100" version="1.1" viewBox="0 0 100 100" xml:space="preserve"><g id="Layer_1"><g><g><polygon fill="#FFF" stroke="#464646" stroke-miterlimit="10" stroke-width="2.272" points="49.988 86 18.816 67.99 18.828 31.988 50.01 14 81.184 32.011 81.17 68.013"/><polygon fill="#FFF" stroke="#464646" stroke-miterlimit="10" stroke-width="2.272" points="18.83 31.988 18.83 31.998 49.99 49.999 81.172 32.012 81.172 32.002 50.012 14"/><polygon fill="#FFF" stroke="#464646" stroke-miterlimit="10" stroke-width="2.272" points="18.824 31.999 18.816 32.004 19.422 67.984 50.896 85.459 50.904 85.453 50.299 49.474"/></g><g><polygon fill="#FFD44F" stroke="#FFF" stroke-miterlimit="10" stroke-width="2.272" points="49.994 69.684 32.949 59.837 32.955 40.152 50.006 30.315 67.053 40.163 67.045 59.85"/><polygon fill="#FFD44F" stroke="#FFF" stroke-miterlimit="10" stroke-width="2.272" points="32.955 40.152 32.955 40.156 49.994 49.999 67.045 40.164 67.045 40.159 50.006 30.315"/><polygon fill="#FFD44F" stroke="#FFF" stroke-miterlimit="10" stroke-width="2.272" points="32.953 40.157 32.949 40.16 33.281 59.835 50.49 69.388 50.494 69.387 50.164 49.712"/></g></g></g></svg>